<?xml version="1.0" encoding="utf-8"?>
<!-- Generator: Adobe Illustrator 23.0.5, SVG Export Plug-In . SVG Version: 6.00 Build 0)  -->
<svg version="1.1" id="Layer_1" xmlns="http://www.w3.org/2000/svg" xmlns:xlink="http://www.w3.org/1999/xlink" x="0px" y="0px"
	 viewBox="0 0 800 819.6" style="enable-background:new 0 0 800 819.6;" xml:space="preserve">
<style type="text/css">
	.st0{fill-rule:evenodd;clip-rule:evenodd;fill:#FCFCFC;}
	.st1{fill-rule:evenodd;clip-rule:evenodd;fill:#FFFFFF;}
	.st2{fill:#FFFFFF;}
	.st3{fill-rule:evenodd;clip-rule:evenodd;}
</style>
<path class="st0" d="M610.7,115.3c2.2-4.4-2.2-9.4-2.2-9.4S578.1,54.4,470,42.8c-58-6.5-136.4,5.8-191.5,35.5
	C178.4,132,163.9,220.5,163.9,220.5c-0.7,2.2-1.5,8.7,0.7,11.6c2.2,2.9,5.8,2.9,9.4,1.5c35.5-11.6,140-46.4,206-64.6
	c94.3-24.7,171.9-39.9,221.2-48.6C605.6,119.7,609.2,118.9,610.7,115.3L610.7,115.3z M247.3,641.2c-2.2,5.1,2.9,10.2,2.9,10.2
	c22.5,28.3,121.8,63.8,229.2,37.7C644,649.2,678.9,533.2,682.5,516.5c0.7-3.6,1.5-8.7-1.5-11.6c-2.9-2.9-6.5-2.9-11.6-1.5
	C555.6,529.5,365.5,587.5,256,634.6C251,636.8,248.8,637.5,247.3,641.2L247.3,641.2z"/>
<path class="st1" d="M718,532.4c-56.5,126.9-164.6,214.7-306,216.8c-103,1.5-194.4-34.1-260.4-95.7l-39.9,16.7v-61.7
	c-43.5-58-68.2-132-68.2-215.4C43.5,177.7,208.2,8,438.1,8c37.7,0,71.1,5.8,97.2,11.6C495.4,6.5,456.2,0,412.7,0
	C166.1,0,0,200.2,0,406.2C0,631,176.2,819.6,408.3,819.6c221.2,0,340.9-155.9,378.6-249.5L718,532.4L718,532.4z"/>
<path class="st2" d="M607.1,267.6c0-8.7,0-16,0-16l-44.2,9.4v-26c0,0,21.8-4.4,27.6-5.8c7.3-1.5,11.6-5.8,11.6-14.5
	c0-8,0-15.2,0-15.2l-39.2,8v-20.3c0,0,20.3-4.4,31.2-6.5c8.7-1.5,11.6-7.3,11.6-16c0-5.1,0-15.2,0-15.2c-19.6,3.6-56.6,10.9-79.8,16
	v134.2c0,0,43.5-10.2,68.2-15.2C602,282.9,607.1,277.1,607.1,267.6z"/>
<path class="st2" d="M651.3,258.2c0-10.2,0-31.9,0-31.9l31.2,36.3c5.8,6.5,15.2,9.4,25.4,3.6c10.2-6.5,10.2-19.6,3.6-26.8
	c-5.1-5.8-23.9-26.8-23.9-26.8c10.2-7.3,22.5-18.9,22.5-37.7c0.7-21.8-18.1-37-45.7-33.4c-10.2,1.5-48.6,8-48.6,8v132l20.3-3.6
	C645.5,274.9,651.3,267.6,651.3,258.2z M672.3,179.9c0,17.4-21,25.4-21,25.4v-35.5C657.8,168.3,671.6,165.4,672.3,179.9z"/>
<path class="st2" d="M469.3,317.7c20.3-4.4,30.5-10.9,37.7-16.7c7.3-6.5,10.2-15.2,10.2-23.2v-52.2L462,237.9c0,0,0,5.8,0,15.2
	c0,7.3,5.1,11.6,12.3,10.2c4.4-0.7,8-1.5,8-1.5V277c0,5.8-8.7,10.2-18.1,9.4c-13.1,0-20.3-10.9-20.3-29.7c0.7-25.4,12.3-40.6,29-45
	c8-2.2,16-0.7,21,0c14.5,2.2,22.5-4.4,22.5-16c0-12.3-10.9-20.3-34.8-19.6c-51.5,1.5-78.3,39.2-78.3,83.4
	C404,303.9,433.7,324.2,469.3,317.7z"/>
<path class="st2" d="M189.3,371.4c0-14.5-11.6-25.4-23.9-27.6c13.1-10.9,18.9-22.5,18.9-37c0-21-18.9-34.8-50-23.2
	c-10.9,4.4-45.7,18.1-45.7,18.1V449l54.4-23.2C169,414.1,189.3,399.6,189.3,371.4z M125.5,312.6c12.3-6.5,21-3.6,21,7.3
	c0,9.4-5.8,16.7-13.8,21c-2.2,1.5-4.4,2.2-6.5,2.9L125.5,312.6z M126.2,402.5V367c15.2-7.3,23.9-1.5,23.9,9.4s-6.5,18.1-15.2,22.5
	C131.3,400.4,126.2,402.5,126.2,402.5z"/>
<path class="st2" d="M399.6,333.6c8-8,8-20.3,0.7-27.6l-23.9-23.2c10.9-8.7,23.2-22.5,23.2-43.5c0.7-22.5-19.6-35.5-47.9-29
	c-18.1,4.4-48.6,15.2-48.6,15.2v137.8c0,0,15.2-5.1,21.8-7.3c8.7-2.9,15.2-10.2,15.2-19.6c0-10.2,0-36.3,0-36.3l31.9,32.6
	C381.5,343.1,394.6,338.7,399.6,333.6z M339.4,279.2v-38.4c7.3-2.9,21-5.8,21.8,9.4C361.2,268.4,339.4,279.2,339.4,279.2z"/>
<path class="st2" d="M237.9,512.1c0,0,38.4-60.9,45-71.1c8.7-13.8,4.4-30.5-10.9-37c-16.7-8-31.2,0.7-37.7,10.2L182,502.6v-71.1
	l-61.7,25.4v201.6l43.5-18.1c0,0,8.7-2.2,13.8-10.2c4.4-7.3,4.4-19.6,4.4-19.6v-63.8l48.6,51.5c10.9,10.9,29.7,16.7,47.1,2.9
	c15.2-12.3,13.1-34.1,4.4-43.5L237.9,512.1z"/>
<path class="st2" d="M655.7,371.4c0,0,0,6.5,0,20.3c0,13.1,6.5,20.3,20.3,18.1c4.4-0.7,10.9-2.9,10.9-2.9v16.7
	c0-0.7,1.5,9.4-20.3,13.8c-28.3,4.4-41.3-13.1-41.3-43.5c0.7-33.4,18.9-52.2,42.1-57.3c25.4-5.8,39.9,0,48.6,1.5
	c28.3,4.4,36.3-38.4,10.9-48.6c-18.9-8-44.2-9.4-67.5-4.4c-31.9,6.5-93.6,32.6-93.6,118.9c0,68.2,50.8,90.7,95.7,85.6
	c32.6-3.6,55.1-16.7,67.5-29c10.9-10.9,13.8-26.1,13.8-37.7c0.7-16.7,0-68.9,0-68.9L655.7,371.4z"/>
<path class="st2" d="M526.6,320.6c-15.2,4.4-26.8,13.8-26.8,39.2c0,8.7,0,60.9,0,60.9s-34.8-43.5-57.3-66
	c-12.3-12.3-31.9-5.1-31.9-5.1l-29.7,8.7v202.4c0,0,26.1-9.4,28.3-10.2c21-7.3,29-19.6,29-41.3c0-23.9,0-69.6,0-69.6l60.9,70.4
	c10.2,10.2,22.5,10.9,34.1,8c11.6-3.6,21.8-14.5,21.8-29.7c0-50.8,0-175.5,0-175.5S539.6,317,526.6,320.6z"/>
<path class="st2" d="M273.4,234.3c-8,2.2-18.1,6.5-18.1,6.5v91.4c0,9.4-1.5,20.3-13.1,23.2c-8.7,2.2-12.3-3.6-12.3-12.3v-74.7
	c0-12.3-8.7-16-18.9-13.1c-11.6,3.6-18.1,6.5-18.1,6.5s0,64.6,0,90.7c0,30.5,21,45.7,52.9,36.3c28.3-8,47.1-23.9,47.1-64.6v-76.9
	C292.3,235,283.6,231.4,273.4,234.3z"/>
<path class="st2" d="M298.8,422.1c0,26.8,0,168.3,0,168.3s17.4-5.8,33.4-11.6c22.5-8.7,31.2-20.3,31.2-44.2c0-20.3,0-171.2,0-171.2
	s-18.1,5.1-33.4,10.9C309.7,381.5,298.8,392.4,298.8,422.1z"/>
<path class="st3" d="M301,76.9c-60.2,26.8-101.5,89.9-103.7,116.8c-0.7,10.9,13.1,12.3,14.5,0.7C224.8,145.8,264,100.1,301,76.9
	L301,76.9z"/>
<path class="st3" d="M501.2,122.6c32.6-8,50.8-9.4,50.8-23.9c0.7-24.7-69-53-132.8-47.9c65.3,4.4,103.7,29,103.7,46.4
	C523.7,108.8,514.2,118.9,501.2,122.6L501.2,122.6z"/>
<path class="st3" d="M521.5,661.5c48.6-19.6,95.7-55.8,121.8-111c7.3-16-14.5-23.9-20.3-5.1C607.8,584.6,576.6,630.3,521.5,661.5
	L521.5,661.5z"/>
<path class="st1" d="M715.9,486.7v5.8h13.8V520h9.4v-27.6h13.1v-5.8h-36.3V486.7z M782.6,520.8l8-27.6V520h9.4v-33.4h-13.1l-8,25.4
	l-8-25.4h-13.1V520h9.4v-26.8l8,26.8h7.3L782.6,520.8L782.6,520.8z"/>
</svg>
