<?xml version="1.0" encoding="utf-8"?>
<!-- Generator: Adobe Illustrator 23.0.5, SVG Export Plug-In . SVG Version: 6.00 Build 0)  -->
<svg version="1.1" id="Слой_1" xmlns="http://www.w3.org/2000/svg" xmlns:xlink="http://www.w3.org/1999/xlink" x="0px" y="0px"
	 viewBox="0 0 684.8 158.2" style="enable-background:new 0 0 684.8 158.2;" xml:space="preserve">
<style type="text/css">
	.st0{fill-rule:evenodd;clip-rule:evenodd;fill:#FFFFFF;}
</style>
<g>
	<path class="st0" d="M175.8,102.9h15.8c6.2,0,8.5,2.1,8.5,7.4c0,5-2.4,7.2-8.5,7.2h-15.8V102.9L175.8,102.9z M151.2,155.7h24.6
		v-21.5h26.3c17.4,0,23.7-10.3,23.7-23.5c0-15.4-6.4-24.1-23.9-24.1h-50.7V155.7L151.2,155.7z"/>
	<polygon class="st0" points="233.9,86.6 299.9,86.6 299.9,103.5 258.4,103.5 258.4,112.7 297,112.7 297,129.6 258.4,129.6 
		258.4,138.9 299.9,138.9 299.9,155.7 233.9,155.7 233.9,86.6 	"/>
	<path class="st0" d="M334.8,102.9h15.8c6.2,0,8.5,2.1,8.5,7.4c0,5-2.4,7.2-8.5,7.2h-15.8V102.9L334.8,102.9z M310.2,155.7h24.6
		v-21.5h26.3c17.4,0,23.7-10.3,23.7-23.5c0-15.4-6.4-24.1-23.9-24.1h-50.7V155.7L310.2,155.7z"/>
	<path class="st0" d="M408.5,126.4c-12-2-17-9.8-17-19.5c0-17.9,15.8-22.8,36-22.8c27.7,0,39.1,8,40,22.7h-28.6
		c0-2.8-1.5-4.6-3.7-5.5c-2.2-1.1-5-1.5-7.7-1.5c-7.3,0-9.8,2-9.8,4.9c0,1.9,0.8,3.2,3.2,3.6l29.3,4.8c12.4,2,20,8.4,20,20.1
		c0,16.8-12.4,24.8-40,24.8c-18.9,0-39.5-2.9-39.6-23.2h29.6c0.1,2.3,0.9,3.9,2.6,4.9c1.8,1,4.5,1.5,8.4,1.5c7.7,0,9.8-2.3,9.8-5.6
		c0-2-1.1-4.1-4.4-4.6L408.5,126.4L408.5,126.4z"/>
	<polygon class="st0" points="478.3,86.6 502.8,86.6 502.8,155.7 478.3,155.7 478.3,86.6 	"/>
	<path class="st0" d="M593.8,128.8c-1.6,9.1-4.4,16.5-10.5,21.5c-6,5-15.4,7.8-30.4,7.8c-14.9,0-42.5-1.2-42.5-37
		c0-35.8,27.6-37,42.5-37c14.8,0,37.6,2.1,40.8,29.5h-27.7c-0.7-4.9-3.7-12.1-13.1-12.1c-10,0-16.4,5.5-16.4,19.6
		c0,14,6.2,19.6,15.2,19.6c7.8,0,12.4-3.6,14.4-11.9H593.8L593.8,128.8z"/>
	<path class="st0" d="M626,121.2c0-14,6.4-19.6,16.4-19.6c10,0,16.4,5.5,16.4,19.6c0,14-6.4,19.6-16.4,19.6
		C632.3,140.7,626,135.2,626,121.2L626,121.2z M599.8,121.2c0,35.8,27.6,37,42.5,37c14.9,0,42.5-1.2,42.5-37c0-35.8-27.6-37-42.5-37
		C627.4,84.2,599.8,85.4,599.8,121.2L599.8,121.2z"/>
	<path class="st0" d="M114.1,87.3c1.6-33.2-27-70.5-66-75.1l0.1-0.5c38.4,0,67.9,35.6,67.9,63.7c0,5.8-0.5,9.5-1.3,12.1L114.1,87.3
		L114.1,87.3z M111.8,91.5c-2.6,3.1-5.8,6.3-9.5,9.3C95.3,60.9,66,26,45.3,15.9l-0.4,0.3c20.8,17.1,45.7,50.3,55.3,86.2
		c-4.6,3.4-10,6.5-15.9,9.1C64.7,89,46.3,45.8,40.4,18.3l-0.6,0.2c0.1,26.6,19,71.8,42.1,93.9c-5.1,2-10.6,3.6-16.4,4.5
		c-22.1-8.8-37.8-36.8-37.8-65.5c0-18.8,5.7-30.4,6.8-32.7l-0.5-0.2c-1.3,2-9.7,13.6-9.7,33.9c0,32.5,16,57.3,37.3,65.1
		c-7.3,0.8-14.9,0.6-22.8-1.1l-0.2,0.5c2.3,0.8,10,4.1,21.8,4.1c26.6,0,44.6-16.5,51.9-29.1L111.8,91.5L111.8,91.5z"/>
	<path class="st0" d="M57.8,0C37.6,0,13.9,14.6,13.9,27.9c0,5.1,4.7,9.5,14.5,9.5c22.6,0,43.7-15.6,43.7-27.6
		C72.1,3.4,65.9,0,57.8,0L57.8,0z M65.8,9.4C65.8,19.6,46.3,32,29.9,32c-7.2,0-11.1-2.8-11.1-7.5c0-10.3,19.8-22.6,35.1-22.6
		C63.9,1.9,65.8,7,65.8,9.4L65.8,9.4z"/>
	<path class="st0" d="M5.9,34C5.3,35,3,39.5,3,44c0,8.5,8.5,16.3,24.3,16.3c30.2,0,65.1-22.2,65.1-42.9c0-9.3-8.8-14.3-14.9-15.4
		l-0.1,0.4c1.9,0.6,8.8,3.8,8.8,12.1c0,16.5-30.8,38.9-61.5,38.9C13,53.4,5.6,47.6,5.6,39.1c0-2.7,0.6-4.4,0.7-4.9L5.9,34L5.9,34z"
		/>
	<path class="st0" d="M104.9,19c0.8,0.6,5.8,4.8,5.8,12.6c0,26.8-41.9,53.1-79,53.1C9.6,84.7-0.4,73.8,0,64.1h0.4
		c0.9,5,8,14,27.4,14c37.1,0,78.5-27.2,78.5-51.1c0-4.1-1.1-6.6-1.7-7.8L104.9,19L104.9,19z"/>
	<path class="st0" d="M118.9,44c0.2,0.6,1.1,3.1,1.1,7.1c0,29.8-42.4,55.2-79.3,55.2c-19,0-28.9-9.2-31-13l0.3-0.3
		c5.3,4.6,15.6,8.1,27.7,8.1c32.6,0,81.2-24.8,80.8-57.1L118.9,44L118.9,44z"/>
</g>
</svg>
