<?xml version="1.0" encoding="utf-8"?>
<!-- Generator: Adobe Illustrator 23.0.5, SVG Export Plug-In . SVG Version: 6.00 Build 0)  -->
<svg version="1.1" id="Слой_1" xmlns="http://www.w3.org/2000/svg" xmlns:xlink="http://www.w3.org/1999/xlink" x="0px" y="0px"
	 viewBox="0 0 800 376.1" style="enable-background:new 0 0 800 376.1;" xml:space="preserve">
<style type="text/css">
	.st0{fill-rule:evenodd;clip-rule:evenodd;fill:#FFFFFF;}
</style>
<path class="st0" d="M270.5,2.2H102.4c0,0,7.4,6.5,8.3,11.5c1.4,7.7-2.1,15.3-2.1,15.3L20.9,309.8c0,0-3.9,10.2-8.8,14.7
	c-4,3.7-12.1,6.9-12.1,6.9h123.3c0,0-8.1-4.2-10.4-9.1c-2-4.3-0.9-12.2-0.9-12.2l30.5-104.7c0,0,145.2,21.4,189.2-87.3
	C368.7,26.9,296.1,2.2,270.5,2.2L270.5,2.2z M255.1,112.6c-29.7,87-105.9,71.8-105.9,71.8l48.1-156.7h28
	C225.2,27.6,285.7,22.7,255.1,112.6L255.1,112.6z"/>
<path class="st0" d="M672.5,131.5c-43.8,7.1-109.4,31.3-109.4,31.3l-7.7,33.5c0,0,22.9-10.7,38.3-15.2c13.6-3.9,35.5-7.1,35.5-7.1
	l-37,133.1c0,0-103.8,23-46.6-154c12.6-39.2,55.9-102.7,99.6-117.1c49-16.2,99.7,20.9,99.7,20.9L759.6,13c0,0-54.8-14.4-90.3-12.9
	c-70.3,3-116.5,21.6-165.4,72.1c-62,64.1-56.4,159.2-56.4,159.2L423.8,250l-23.2,18.1c0,0-14.9-22.7-20.1-39.1
	c-4.2-13.2-6.2-34.9-6.2-34.9s39.7-19.8,59.9-36.3c40.4-32.8,25.8-71.1-1.1-75c-31.1-4.5-46.3-2.4-69.2,15.7
	c-35,27.8-36.4,86.4-36.4,86.4S212.5,213,227,296.2c4.3,24.6,41.5,39.3,71.9,38.8c47.4-2.1,79.7-23.3,79.7-23.3
	s29.2,40.4,102.2,58.2c94,23,188.2-24.4,188.2-24.4l5.5-14.6c0,0-69.7,37-148.8,21.9c-73.5-14-111.9-62.3-111.9-62.3s13-10,21-16.7
	c7.2-6,18-15.8,18-15.8s14.1,44,52.4,61.9c84.2,39.5,175.6-6.4,175.6-6.4l44.6-147.8c0,0,18.7-1.8,30.6-1.7
	c13.1,0.1,33.5,2.4,33.5,2.4l10.4-39.1C800,127.2,721.3,123.6,672.5,131.5L672.5,131.5z M319.9,304.3c-18.1,1.1-38-6.3-42.5-23
	c-12.5-46,53-69,53-69s4.8,25.9,11,41.5c6.1,15.4,20.3,37.3,20.3,37.3S341.6,302.9,319.9,304.3L319.9,304.3z M416.7,103.5
	c12.4,1.8,9.1,29.3-7.8,41.6c-13.2,14.1-36,20.4-36,20.4S370,96.7,416.7,103.5z"/>
</svg>
