<?xml version="1.0" encoding="utf-8"?>
<!-- Generator: Adobe Illustrator 23.0.5, SVG Export Plug-In . SVG Version: 6.00 Build 0)  -->
<svg version="1.1" id="Слой_1" xmlns="http://www.w3.org/2000/svg" xmlns:xlink="http://www.w3.org/1999/xlink" x="0px" y="0px"
	 viewBox="0 0 800 126.5" style="enable-background:new 0 0 800 126.5;" xml:space="preserve">
<style type="text/css">
	.st0{fill:#FFFFFF;}
	.st1{fill:#FCFCFC;}
</style>
<g>
	<path class="st0" d="M763.4,54.4v18.3h12.2v17c0,1.5,0,3.1-0.3,4.5c-0.5,3.2-3.5,8.5-11.9,8.5c-8.4,0-11.4-5.3-12-8.5
		c-0.2-1.3-0.3-3-0.3-4.5V36.7c0-1.9,0.1-4,0.5-5.5c0.6-2.9,3.2-8.5,11.8-8.5c9,0,11.3,5.9,11.8,8.5c0.3,1.6,0.4,4.4,0.4,4.4v6.6
		H800v-3.9c0,0,0.1-4-0.2-7.7c-2.1-22.1-19.5-29-39.3-29c-19.9,0-36.9,7-39.3,29c-0.2,1.9-0.5,5.6-0.5,7.7l0,48.6
		c0,2.1,0.1,3.7,0.4,7.5c1.8,20.8,19.5,28.2,39.3,28.2c19.8,0,37.5-7.4,39.3-28.2c0.3-3.8,0.3-5.4,0.4-7.5V54.4H763.4z"/>
	<path class="st0" d="M531.3,92.4c0,1.5,0,3.2-0.3,4.5c-0.6,2.9-3.3,8.4-11.9,8.4c-8.6,0-11.3-5.5-11.9-8.4c-0.3-1.3-0.3-3-0.3-4.5
		V5.6h-24.4v84.2c0,2.2,0.2,6.6,0.3,7.8c1.9,21.9,18.6,29,39.4,29c20.8,0,37.4-7.1,39.4-29c0.1-1.2,0.3-5.6,0.3-7.8V5.6h-30.5
		L531.3,92.4L531.3,92.4z"/>
	<path class="st0" d="M401.5,32.4c-0.5-2.3-0.4-4.6-0.1-5.8c0.8-3.6,3.1-7.6,9.9-7.6c6.4,0,10.1,4.1,10.1,10.1v6.9h30.5v-7.8
		C451.9,3.9,429.7,0,413.6,0c-20.2,0-36.7,6.5-39.7,24.9c-0.8,4.9-1,9.5,0.3,15.1c4.9,22.9,45.3,29.6,51.2,44
		c1.1,2.7,0.7,6.2,0.2,8.3c-0.9,3.7-3.5,7.5-11.1,7.5c-7.1,0-11.4-4-11.4-10.1l0-10.9h-30.5v8.7c0,25,19.1,32.5,39.6,32.5
		c19.7,0,35.8-6.9,38.4-25.6c1.3-9.7,0.3-16-0.1-18.4C445.8,52.5,404.5,45.6,401.5,32.4z"/>
	<path class="st1" d="M28.9,32.4c-0.5-2.3-0.4-4.6-0.1-5.9C29.6,23,32,19,38.8,19c6.4,0,10.1,4.1,10.1,10.2v6.9h30.5v-7.8
		C79.4,3.8,57.2,0,41.1,0C20.9,0,4.5,6.6,1.4,24.9C0.6,29.8,0.5,34.3,1.7,40c4.9,22.9,45.3,29.6,51.1,44c1.1,2.7,0.7,6.2,0.2,8.3
		c-0.9,3.7-3.5,7.5-11,7.5c-7.1,0-11.4-4-11.4-10.1l0-10.9H0l0,8.7c0,25,19.1,32.5,39.6,32.5c19.7,0,35.9-6.9,38.5-25.6
		c1.3-9.7,0.4-16.1-0.1-18.4C73.3,52.5,32,45.6,28.9,32.4z"/>
	<polygon class="st0" points="294.9,5.6 280.4,97.2 279.7,97.2 265.3,5.6 218.6,5.6 216,121.6 244.3,121.6 245,17.8 245.6,17.8 
		264.5,121.6 297.9,121.6 316.9,17.3 317.6,17.3 318.3,121.6 346.8,121.6 344.3,5.6 	"/>
	<polygon class="st0" points="120.8,5.6 99.8,121.6 130.7,121.6 146.1,17.8 146.7,17.8 161.7,121.6 192.5,121.6 171.5,5.6 	"/>
	<polygon class="st0" points="661.2,97.2 660.5,97.2 632.2,5.6 592.4,5.6 592.4,121.6 622.9,121.6 621.3,23.9 621.9,23.9 
		649.8,121.6 690.1,121.6 690.1,5.6 659.5,5.6 	"/>
</g>
</svg>
